PathFileType  4	(X/Y/Z) C:\Users\antoi\Documents\MyRepositories\mobilecap\ResultsAnalysis
DataRate	CameraRate	NumFrames	NumMarkers	Units	OrigDataRate	OrigDataStartFrame	OrigNumFrames
100.0	100.0	6	51	mm	100.0	826	1321
Frame#	Time	r_knee			r_shank_antsup			r_ankle			r_calc			r_5meta			r_toe			L_knee			L_shank_antsup			L_ankle			L_calc			L_5meta			L_toe			r_sh2			r_sh3			r_sh4			L_sh2			L_sh3			r_thigh1			r_thigh2			r_thigh3			r_thigh4			r_thigh5			L_thigh1			L_thigh2			L_thigh3			L_thigh4			r.ASIS			r.PSIS			L.ASIS			L.PSIS			C7			R_Shoulder			L_Shoulder			R_Sternum			L_Sternum			R_humerus			R_elbow_med			R_elbow_lat			R_forearm			R_wrist_radius			R_wrist_ulna			L_humerus			L_elbow_med			L_elbow_lat			L_forearm			L_wrist_radius			L_wrist_ulna			R_HJC			L_HJC			R_HJC_reg			L_HJC_reg			
		X1	Y1	Z1	X2	Y2	Z2	X3	Y3	Z3	X4	Y4	Z4	X5	Y5	Z5	X6	Y6	Z6	X7	Y7	Z7	X8	Y8	Z8	X9	Y9	Z9	X10	Y10	Z10	X11	Y11	Z11	X12	Y12	Z12	X13	Y13	Z13	X14	Y14	Z14	X15	Y15	Z15	X16	Y16	Z16	X17	Y17	Z17	X18	Y18	Z18	X19	Y19	Z19	X20	Y20	Z20	X21	Y21	Z21	X22	Y22	Z22	X23	Y23	Z23	X24	Y24	Z24	X25	Y25	Z25	X26	Y26	Z26	X27	Y27	Z27	X28	Y28	Z28	X29	Y29	Z29	X30	Y30	Z30	X31	Y31	Z31	X32	Y32	Z32	X33	Y33	Z33	X34	Y34	Z34	X35	Y35	Z35	X36	Y36	Z36	X37	Y37	Z37	X38	Y38	Z38	X39	Y39	Z39	X40	Y40	Z40	X41	Y41	Z41	X42	Y42	Z42	X43	Y43	Z43	X44	Y44	Z44	X45	Y45	Z45	X46	Y46	Z46	X47	Y47	Z47	X48	Y48	Z48	X49	Y49	Z49	X50	Y50	Z50	X51	Y51	Z51	

826	8.25000000	-272.52171	475.84978	-410.36792	-242.67863	415.87336	-407.47397	-282.52857	81.24696	-426.64898	-335.06416	52.78455	-473.73037	-175.39912	42.09660	-397.15381	-136.93360	63.04146	-448.54328	-244.94108	476.14988	-734.21284	-211.23409	392.64884	-742.70952	-280.09926	94.98403	-791.45503	-334.89120	52.12069	-748.64994	-180.57406	43.65888	-831.61888	-128.63084	61.64498	-780.70984	-255.78225	303.64284	-400.21354	-316.04105	425.29284	-390.47863	-336.94750	310.13294	-389.34560	-293.26032	419.87605	-766.72611	-309.01336	300.60530	-792.60250	-210.64936	725.50216	-356.52157	-212.41767	613.98296	-376.71669	-320.62082	614.67648	-400.85468	-322.79205	726.28158	-368.17016	-275.00126	592.53055	-377.89018	-204.36112	760.47157	-749.72922	-192.21620	621.19475	-743.74972	-314.90146	750.74226	-736.67777	-302.41465	613.95786	-714.63100	-163.87888	935.77350	-429.11130	-371.00032	944.40890	-511.03461	-159.24441	938.12455	-652.61202	-366.22917	946.18509	-591.36018	-330.04691	1390.61422	-524.91575	-274.16340	1362.96650	-382.37430	-264.02667	1369.06587	-666.67955	-197.52536	1342.21779	-500.34744	-198.15116	1340.83776	-537.76765	-206.98078	1277.74803	-323.44114	-139.80230	1067.63388	-324.80152	-116.64216	1102.87132	-269.24527	-30.89989	1142.39283	-284.42524	99.39218	1159.15466	-335.78699	110.77635	1130.04974	-313.08289	-214.05516	1278.97823	-732.89572	-131.26021	1067.09602	-720.43201	-117.88546	1105.34066	-776.79375	-13.04471	1122.12220	-764.05202	106.58754	1127.03891	-720.02212	110.57847	1089.81347	-735.79398	-236.11039	840.67318	-440.14616	-229.82986	845.39608	-647.50478	-228.43444	859.25568	-465.31384	-219.68792	862.51160	-612.56855	
827	8.26000000	-272.19939	475.77121	-410.33728	-242.40705	415.88255	-407.34216	-282.48993	81.27810	-426.61520	-335.07275	52.79936	-473.73299	-175.40290	42.15053	-397.17975	-136.94273	63.06354	-448.54183	-244.89728	476.09649	-734.20628	-211.17868	392.62232	-742.71061	-280.11310	94.97314	-791.47426	-334.91417	52.10511	-748.66493	-180.57149	43.66280	-831.60095	-128.57955	61.67168	-780.67947	-255.59439	303.47674	-400.20149	-316.31795	425.22881	-389.75588	-336.68230	309.97233	-389.31291	-293.15417	419.83076	-766.76903	-308.85767	300.67113	-792.58074	-210.75036	725.58192	-356.48251	-212.38316	614.02875	-376.69245	-320.62891	614.51450	-400.82965	-322.93086	726.14092	-368.10046	-274.94069	592.51733	-377.83058	-204.51868	760.44662	-749.66391	-192.25760	621.19491	-743.75447	-315.08933	750.64943	-736.47332	-302.51956	613.85151	-714.58294	-164.21515	935.75484	-429.15747	-371.32647	944.35489	-510.94642	-159.46941	938.07370	-652.57049	-366.46274	946.26164	-591.43415	-329.59579	1390.67422	-524.71338	-273.67832	1363.01396	-382.13850	-263.55829	1369.16682	-666.61862	-197.06633	1342.17299	-500.17484	-197.81639	1340.76926	-537.82927	-206.50999	1277.73730	-323.41496	-139.29222	1067.58718	-324.85596	-116.21687	1102.88208	-269.06421	-30.44340	1142.36136	-284.45992	99.85367	1159.09787	-335.87647	111.22346	1129.88618	-313.25809	-213.79634	1279.14782	-732.92191	-130.77699	1067.06511	-719.94655	-117.71472	1105.46386	-776.81866	-12.54052	1122.45745	-764.47562	106.82927	1127.28057	-720.14893	110.83864	1090.10187	-736.09059	-236.43338	840.64730	-440.14552	-230.11110	845.38415	-647.50252	-228.73338	859.08170	-465.53254	-219.83927	862.56842	-612.71654	
828	8.27000000	-271.86545	475.68857	-410.23649	-242.14122	415.87476	-407.29981	-282.47466	81.29719	-426.61771	-335.10582	52.79276	-473.74348	-175.39737	42.17969	-397.19810	-136.95796	63.07849	-448.55414	-244.85729	476.03698	-734.19404	-211.12626	392.58686	-742.69750	-280.09224	94.95748	-791.46106	-334.91721	52.08384	-748.68483	-180.57504	43.66181	-831.61870	-128.57122	61.61308	-780.61062	-255.44871	303.36169	-400.19272	-316.37756	425.29062	-389.18615	-336.32288	309.94509	-389.07626	-293.10057	419.79882	-766.76785	-308.81919	300.48350	-792.57538	-210.85840	725.71258	-356.42018	-212.37083	614.14381	-376.63784	-320.55613	614.41463	-400.70022	-323.07697	726.02403	-368.05982	-274.86662	592.46852	-377.80843	-204.70907	760.44900	-749.62073	-192.30751	621.19117	-743.75323	-315.29183	750.51854	-736.26459	-302.59115	613.76377	-714.54069	-164.62703	935.69466	-429.28018	-371.63431	944.39659	-510.88803	-159.66084	938.07792	-652.67684	-366.75388	946.26804	-591.37521	-329.12683	1390.75699	-524.54407	-273.15844	1363.02177	-381.96163	-263.08468	1369.23978	-666.42934	-196.55490	1342.19617	-499.95485	-197.38578	1340.74714	-537.86588	-205.99104	1277.75334	-323.34351	-138.68279	1067.60174	-325.03231	-115.69535	1102.90792	-268.91150	-29.97139	1142.30933	-284.50866	100.29655	1159.05632	-335.94265	111.71776	1129.71135	-313.43267	-213.46691	1279.26221	-732.81758	-130.75972	1067.68645	-720.84346	-117.48349	1105.64918	-776.91959	-11.72494	1122.87632	-764.95153	107.16411	1127.57012	-720.26229	111.12049	1090.44693	-736.25084	-236.74333	840.61112	-440.20334	-230.45038	845.39933	-647.56005	-229.10091	859.13377	-465.63233	-220.17649	862.55504	-612.80863	
829	8.28000000	-271.58179	475.67060	-410.11471	-241.84050	415.76294	-407.38345	-282.45481	81.32493	-426.61799	-335.10307	52.78975	-473.73842	-175.37839	42.16555	-397.18548	-136.96206	63.09283	-448.56580	-244.83500	475.97461	-734.17112	-211.09053	392.54171	-742.69389	-280.07653	94.93516	-791.44817	-334.89407	52.07068	-748.70354	-180.58072	43.65477	-831.64770	-128.61189	61.54711	-780.58415	-255.28446	303.30408	-400.20334	-316.01890	425.41087	-389.12061	-335.96734	310.01930	-388.85846	-293.05944	419.76148	-766.73695	-308.87055	300.20838	-792.58306	-210.94511	725.79530	-356.40525	-212.31449	614.24020	-376.55433	-320.42898	614.37627	-400.53722	-323.19939	725.91786	-367.98512	-274.76565	592.40967	-377.79302	-204.92545	760.45229	-749.59363	-192.39516	621.15594	-743.71989	-315.51976	750.33458	-736.15412	-302.63243	613.66473	-714.53298	-165.01882	935.66373	-429.32123	-371.91641	944.54612	-510.90819	-159.88691	938.03965	-652.74998	-367.07042	946.22100	-591.27431	-328.61902	1390.89228	-524.42024	-272.58666	1363.03995	-381.86701	-262.63304	1369.31054	-666.19437	-196.06785	1342.20084	-499.79894	-196.88794	1340.74351	-537.81216	-205.44207	1277.76880	-323.25862	-138.13304	1067.64200	-324.99340	-115.10006	1102.94575	-268.82640	-29.45836	1142.26392	-284.54410	100.78926	1159.01761	-336.01623	112.27948	1129.60838	-313.48113	-213.04205	1279.39508	-732.61743	-130.93588	1068.60536	-722.41416	-117.08291	1105.96829	-777.23861	-10.99804	1123.28015	-765.11832	107.57041	1127.89093	-720.26441	111.50937	1090.86800	-736.31086	-237.08606	840.63471	-440.18665	-230.80153	845.36547	-647.54496	-229.51951	859.38233	-465.47417	-220.64283	862.44920	-612.68464	
830	8.29000000	-271.34786	475.67171	-410.01470	-241.48746	415.55291	-407.51430	-282.44872	81.32092	-426.58504	-335.04635	52.82766	-473.72907	-175.36117	42.16560	-397.17043	-136.94158	63.12042	-448.56640	-244.82346	475.90337	-734.14613	-211.05808	392.49479	-742.71187	-280.09921	94.91071	-791.47859	-334.88792	52.05847	-748.73309	-180.58689	43.63601	-831.66496	-128.61860	61.57358	-780.61730	-255.11271	303.24624	-400.18483	-315.54704	425.50512	-389.10162	-335.71217	310.09494	-388.80177	-293.01418	419.69197	-766.68675	-308.82303	300.26555	-792.59406	-211.01180	725.81426	-356.40908	-212.22575	614.28087	-376.45354	-320.34351	614.27929	-400.40241	-323.31377	725.77715	-367.90761	-274.65696	592.41608	-377.71479	-205.16577	760.43569	-749.51311	-192.52119	621.09629	-743.63664	-315.78135	750.11765	-736.12566	-302.70290	613.51430	-714.52748	-165.37774	935.66283	-429.20962	-372.24658	944.64768	-510.89227	-160.17983	937.86556	-652.50347	-367.35032	946.21822	-591.27548	-328.04675	1391.02031	-524.17786	-271.96318	1363.06208	-381.80022	-262.15536	1369.37648	-665.94821	-195.58488	1342.18600	-499.67784	-196.37743	1340.69970	-537.66079	-204.87657	1277.74409	-323.17216	-137.68109	1067.62065	-324.60757	-114.50784	1102.94257	-268.77378	-28.89803	1142.21988	-284.47952	101.38301	1158.93949	-336.07477	112.84071	1129.57336	-313.43701	-212.54422	1279.60186	-732.46857	-130.46130	1068.82801	-722.62830	-116.48829	1106.36527	-777.60573	-10.49763	1123.62074	-765.04340	108.05102	1128.30650	-720.15861	112.07810	1091.32298	-736.35346	-237.53741	840.68258	-439.99311	-231.12189	845.23828	-647.35126	-229.95998	859.49506	-465.28223	-220.99937	862.36965	-612.40241	
831	8.30000000	-271.11517	475.65581	-409.92265	-241.10256	415.39562	-407.55838	-282.48631	81.26246	-426.58646	-335.00891	52.85356	-473.72889	-175.37515	42.18758	-397.18282	-136.91637	63.14942	-448.56155	-244.81303	475.81854	-734.12190	-211.00943	392.43964	-742.73902	-280.11485	94.87632	-791.51168	-334.91882	52.02173	-748.76397	-180.59048	43.61058	-831.66062	-128.60843	61.64572	-780.67146	-254.86207	303.18893	-400.15200	-315.21786	425.55305	-388.89732	-335.54043	310.13270	-388.82220	-292.97399	419.61089	-766.63695	-308.68499	300.52628	-792.59777	-211.08436	725.85041	-356.33579	-212.14098	614.32225	-376.35379	-320.30730	614.12551	-400.26732	-323.46012	725.59928	-367.85800	-274.59764	592.40708	-377.58652	-205.40765	760.40519	-749.38510	-192.66271	621.02867	-743.51017	-316.03464	749.92801	-736.12469	-302.81515	613.36432	-714.50531	-165.74240	935.67720	-429.03495	-372.58779	944.67619	-510.79254	-160.53340	937.66049	-652.08979	-367.58672	946.29017	-591.28737	-327.41809	1391.13116	-523.86996	-271.28569	1363.09738	-381.68821	-261.60550	1369.45404	-665.65586	-195.00616	1342.21411	-499.50468	-195.82395	1340.63796	-537.40169	-204.24384	1277.75253	-323.05155	-137.22199	1067.53662	-324.12934	-113.93558	1102.90704	-268.71259	-28.29287	1142.19562	-284.30150	102.02158	1158.83230	-336.04167	113.38098	1129.54273	-313.42823	-212.00710	1279.84001	-732.41615	-129.32509	1068.38170	-721.58023	-115.81351	1106.73437	-777.81802	-10.00560	1123.97510	-765.08757	108.61527	1128.80480	-720.09256	112.72058	1091.72593	-736.28631	-238.02122	840.72447	-439.71980	-231.43673	845.10728	-647.07640	-230.38150	859.42661	-465.18540	-221.25224	862.37313	-612.13470	
